<svg width="28" height="25" viewBox="0 0 28 25" fill="none" xmlns="http://www.w3.org/2000/svg">
<path d="M4.47263 1V0.4C4.31326 0.4 4.16043 0.463407 4.04787 0.576232L4.47263 1ZM22.9933 1L23.4181 0.576232C23.3055 0.463407 23.1527 0.4 22.9933 0.4V1ZM1 4.48076L0.57524 4.057C0.463022 4.16948 0.4 4.32188 0.4 4.48076H1ZM1 24.2051H0.4C0.4 24.5365 0.668629 24.8051 1 24.8051L1 24.2051ZM26.466 24.2051V24.8051C26.6251 24.8051 26.7777 24.7419 26.8902 24.6293C27.0027 24.5168 27.066 24.3642 27.066 24.2051H26.466ZM26.466 4.48076H27.066C27.066 4.32188 27.0029 4.16948 26.8907 4.057L26.466 4.48076ZM4.47263 1.6H22.9933V0.4H4.47263V1.6ZM1.42476 4.90453L4.89739 1.42377L4.04787 0.576232L0.57524 4.057L1.42476 4.90453ZM1.6 24.2051V4.48076H0.4V24.2051H1.6ZM26.466 23.6051H1V24.8051H26.466V23.6051ZM25.866 4.48076L25.866 24.2051H27.066L27.066 4.48076H25.866ZM22.5686 1.42377L26.0412 4.90453L26.8907 4.057L23.4181 0.576232L22.5686 1.42377Z" fill="black"/>
<path d="M7.65546 9.12207H4.18304C3.70385 9.12207 3.31494 9.51015 3.31494 9.99221C3.31494 10.4725 3.70385 10.8623 4.18304 10.8623H5.05115C5.05115 15.6672 8.93678 19.5637 13.7322 19.5637C18.5258 19.5637 22.4132 15.6672 22.4132 10.8623H23.2813C23.7588 10.8623 24.1494 10.4725 24.1494 9.99221C24.1494 9.51189 23.7588 9.12207 23.2813 9.12207H19.8089C19.3297 9.12207 18.9408 9.51189 18.9408 9.99221C18.9408 10.4725 19.3297 10.8623 19.8089 10.8623H20.677C20.677 14.7049 17.5675 17.8234 13.7322 17.8234C9.8969 17.8234 6.78735 14.7049 6.78735 10.8623H7.65546C8.13291 10.8623 8.52356 10.4725 8.52356 9.99221C8.52356 9.51189 8.13291 9.12207 7.65546 9.12207Z" fill="black"/>
</svg>
