<svg width="26" height="26" viewBox="0 0 26 26" fill="none" xmlns="http://www.w3.org/2000/svg">
<path d="M2.44456 0.0768185C1.57494 0.267353 0.744413 0.917122 0.348689 1.71834C-0.0226078 2.4707 -0.00306584 1.87956 0.00181964 10.8493C0.00181964 17.1369 0.0164761 18.925 0.0653309 19.052C0.20701 19.4477 0.680901 19.6383 1.07663 19.4575C1.19388 19.4038 2.29311 18.5244 3.52425 17.4984L5.75203 15.6371H11.6341C18.2051 15.6371 17.8631 15.6517 18.6057 15.2853C19.4167 14.8847 20.0567 14.0591 20.2473 13.165C20.3547 12.6618 20.3547 2.97879 20.2473 2.47559C20.003 1.30796 19.0161 0.321093 17.8485 0.0768185C17.3599 -0.0257759 2.92334 -0.0257759 2.44456 0.0768185ZM17.8338 1.71834C18.1807 1.87956 18.4445 2.14338 18.6057 2.49024L18.7328 2.76383V7.8203V12.8768L18.6057 13.1504C18.4445 13.4972 18.1807 13.761 17.8338 13.9223L17.5602 14.0493L11.4045 14.0737C5.77157 14.0981 5.23417 14.103 5.10226 14.1812C5.02409 14.2252 4.20333 14.8896 3.28486 15.6566C2.36151 16.4236 1.59937 17.0539 1.58472 17.0539C1.57006 17.0539 1.56029 13.8832 1.56029 10.0041C1.56029 2.2704 1.54563 2.71009 1.85342 2.24109C2.02929 1.97727 2.298 1.77696 2.64975 1.65971C2.88914 1.57178 3.27998 1.57178 10.232 1.58155L17.5602 1.59132L17.8338 1.71834Z" fill="black"/>
<path d="M5.15118 4.76178C4.82385 4.90346 4.63821 5.27964 4.7066 5.64605C4.75057 5.87567 4.99485 6.14437 5.21469 6.20788C5.33683 6.24696 6.93926 6.25674 10.2663 6.24696C15.098 6.23231 15.1371 6.23231 15.269 6.12971C15.5279 5.93918 15.6061 5.78284 15.6061 5.47506C15.6061 5.16727 15.5279 5.01094 15.269 4.8204C15.1371 4.71781 15.098 4.71781 10.2174 4.70804C6.20156 4.69827 5.26843 4.70804 5.15118 4.76178Z" fill="black"/>
<path d="M5.15118 7.88873C4.82385 8.03041 4.63821 8.40659 4.7066 8.773C4.75057 9.00262 4.99485 9.27132 5.21469 9.33483C5.33683 9.37392 6.47026 9.38369 8.70292 9.37392C11.9518 9.35926 12.0104 9.35926 12.1423 9.25667C12.4012 9.06613 12.4794 8.9098 12.4794 8.60201C12.4794 8.29423 12.4012 8.13789 12.1423 7.94736C12.0104 7.84476 11.9567 7.84476 8.65407 7.83499C5.93774 7.82522 5.26843 7.83499 5.15118 7.88873Z" fill="black"/>
<path d="M21.5655 6.32549C21.4825 6.35968 21.3554 6.46228 21.2822 6.54533C20.862 7.04365 21.2333 7.82044 21.8977 7.82044C22.3472 7.82044 22.9041 8.12334 23.1533 8.49464C23.4611 8.96364 23.4464 8.55815 23.4366 15.901L23.422 22.5844L22.0736 21.5096C21.331 20.9233 20.6812 20.4201 20.6324 20.3957C20.5786 20.3712 18.0626 20.3419 14.7747 20.3273L9.00983 20.3028L8.73624 20.1758C8.38937 20.0097 8.12555 19.7508 7.96922 19.4039C7.85685 19.1596 7.83731 19.0473 7.81288 18.4122C7.78846 17.6354 7.75914 17.5572 7.45136 17.3276C7.26082 17.1859 6.80159 17.1859 6.61106 17.3276C6.30327 17.5523 6.27396 17.6403 6.2593 18.3633C6.23976 19.1889 6.31793 19.5993 6.60129 20.1758C6.88953 20.7572 7.38296 21.2506 7.96433 21.5389C8.70204 21.9053 8.40891 21.8906 14.55 21.8906H20.0412L21.8538 23.3416C22.8504 24.1428 23.764 24.8463 23.8861 24.9098C24.1646 25.0564 24.4479 25.0369 24.6922 24.8512C25.0342 24.5874 25.0098 25.1834 25.0098 16.7169C25.0098 8.17708 25.0293 8.72425 24.658 7.97189C24.2574 7.1609 23.4318 6.5209 22.5377 6.33037C22.1225 6.24243 21.7609 6.24243 21.5655 6.32549Z" fill="black"/>
</svg>
